<?xml version="1.0" standalone="no"?>
<!DOCTYPE svg PUBLIC "-//W3C//DTD SVG 20010904//EN"
 "http://www.w3.org/TR/2001/REC-SVG-20010904/DTD/svg10.dtd">
<svg version="1.0" xmlns="http://www.w3.org/2000/svg"
 width="269.000000pt" height="269.000000pt" viewBox="0 0 269.000000 269.000000"
 preserveAspectRatio="xMidYMid meet">
<metadata>
Created by potrace 1.14, written by Peter Selinger 2001-2017
</metadata>
<g transform="translate(0.000000,269.000000) scale(0.100000,-0.100000)"
fill="#000000" stroke="none">
<path d="M1338 2667 c-34 -32 -41 -58 -29 -105 13 -46 49 -82 87 -87 21 -2 37
6 61 30 28 28 33 40 33 83 0 70 -27 102 -84 102 -31 0 -50 -6 -68 -23z"/>
<path d="M1665 2644 c-61 -31 -104 -89 -100 -134 1 -8 3 -25 3 -38 2 -27 74
-107 116 -129 118 -61 217 -10 217 110 0 75 -33 151 -80 183 -42 28 -110 32
-156 8z"/>
<path d="M1137 2569 c-55 -32 -52 -150 5 -190 49 -35 103 -25 129 23 43 80 -2
178 -80 178 -20 0 -44 -5 -54 -11z"/>
<path d="M995 2412 c-64 -14 -78 -130 -23 -189 28 -30 60 -29 95 1 23 20 28
32 28 73 0 75 -44 127 -100 115z"/>
<path d="M1404 2354 c-126 -32 -255 -116 -392 -254 -107 -109 -138 -162 -149
-256 -13 -106 2 -209 79 -534 35 -144 83 -427 94 -550 9 -91 10 -267 2 -365
-19 -251 193 -452 387 -366 130 57 183 160 189 366 6 195 -17 320 -93 525 -41
110 -50 209 -27 312 22 98 43 136 135 238 96 106 120 139 159 217 84 165 96
348 32 474 -27 52 -125 138 -195 170 -71 33 -149 42 -221 23z"/>
<path d="M814 2187 c-34 -29 -42 -93 -17 -125 11 -13 34 -25 55 -28 31 -6 40
-2 62 21 29 31 36 98 13 129 -20 27 -82 29 -113 3z"/>
</g>
</svg>
