<?xml version="1.0" standalone="no"?>
<!DOCTYPE svg PUBLIC "-//W3C//DTD SVG 20010904//EN"
 "http://www.w3.org/TR/2001/REC-SVG-20010904/DTD/svg10.dtd">
<svg version="1.0" xmlns="http://www.w3.org/2000/svg"
 width="269.000000pt" height="269.000000pt" viewBox="0 0 269.000000 269.000000"
 preserveAspectRatio="xMidYMid meet">
<metadata>
Created by potrace 1.14, written by Peter Selinger 2001-2017
</metadata>
<g transform="translate(0.000000,269.000000) scale(0.100000,-0.100000)"
fill="#000000" stroke="none">
<path d="M1337 2666 c-33 -31 -42 -66 -28 -109 15 -43 51 -78 87 -82 21 -2 37
6 61 30 28 28 33 40 33 83 0 70 -27 102 -84 102 -32 0 -50 -6 -69 -24z"/>
<path d="M1665 2644 c-59 -31 -90 -69 -100 -122 -7 -42 9 -80 53 -125 90 -93
200 -107 257 -33 53 69 20 227 -58 274 -41 26 -109 29 -152 6z"/>
<path d="M1137 2569 c-42 -24 -51 -92 -22 -161 10 -25 55 -51 88 -50 81 2 115
131 50 196 -28 28 -82 35 -116 15z"/>
<path d="M995 2412 c-64 -14 -78 -130 -23 -189 29 -31 63 -29 100 7 27 28 30
36 25 77 -8 71 -51 116 -102 105z"/>
<path d="M1405 2356 c-124 -33 -257 -119 -392 -254 -106 -107 -139 -163 -150
-258 -13 -106 2 -209 79 -534 80 -336 117 -676 96 -891 -32 -325 277 -535 482
-329 67 67 93 160 94 335 1 208 -16 295 -99 510 -37 94 -42 218 -14 323 23 85
53 137 103 177 20 16 36 34 36 41 0 7 8 19 18 26 50 36 158 221 177 303 2 6 8
29 14 53 15 55 16 168 1 223 -20 72 -46 113 -107 169 -104 95 -229 134 -338
106z"/>
<path d="M817 2188 c-75 -62 -18 -182 73 -153 42 13 66 109 37 148 -21 29 -78
32 -110 5z"/>
</g>
</svg>
